<svg id="Layer_1" data-name="Layer 1" xmlns="http://www.w3.org/2000/svg" viewBox="0 0 503.97 504"><title>Artboard 1</title><rect x="-12.1" y="-13" width="526" height="526" style="fill:#f15a29"/><g id="_Group_" data-name="&lt;Group&gt;"><path id="_Path_" data-name="&lt;Path&gt;" d="M179.05,321.41c2.15,6.3,4.23,12.42,6.41,18.82l-6.57.18c-5.33.16-10.66.25-16,.5-12.38.58-24.76.61-37.13.16a148.52,148.52,0,0,1-29.24-3.5A91,91,0,0,1,58.3,318.24C39.22,302.05,27.72,281.42,23,256.94a109.46,109.46,0,0,1-1.05-35.52A93.38,93.38,0,0,1,35.51,183.7q23.24-37,65.61-48.14a78.51,78.51,0,0,1,17.18-2.66c5.6-.2,11.2-.35,16.81-.36,16.07,0,32.15,0,48.23,0h2.2c-.26,1.83-7.11,14.6-10.94,20.58-2.54-.17-5.19-.31-7.83-.51-2.45-.18-4.89-.47-7.35-.62-10.1-.64-20.2-1.31-30.32-.83-11.72.55-23.22,2.35-34.22,6.64A82,82,0,0,0,60,184,88.19,88.19,0,0,0,43.8,214.78a75,75,0,0,0-2.92,21.67,84.64,84.64,0,0,0,6.39,30.74,89.93,89.93,0,0,0,19.21,30A78.15,78.15,0,0,0,106.61,319a93.28,93.28,0,0,0,18.69,2.13c9.23.12,18.46.33,27.69.39,7.87.05,15.74-.07,23.61-.11C177.35,321.4,178.09,321.41,179.05,321.41Z" style="fill:#fff"/><polygon id="_Path_2" data-name="&lt;Path&gt;" points="174.6 153.15 239.21 341.38 266.93 341.38 338.79 136.92 318.08 132 256.29 315.55 186.36 132.57 174.6 153.15" style="fill:#231f20"/><path id="_Path_3" data-name="&lt;Path&gt;" d="M328.81,150.85c-3.48-6.26-7-12.52-10.55-19,.69-.08,1.19-.19,1.69-.2,3.7,0,7.39,0,11.09,0,7.24-.1,14.49-.29,21.73-.4,6.77-.11,13.54-.34,20.3-.19,12,.26,23.86,1.46,35.39,5a102.24,102.24,0,0,1,35.08,19.08,107,107,0,0,1,32.1,43.16c5.66,13.9,8.33,28.37,7.12,43.33-2,25.21-11.34,47.47-28.47,66.19-14.77,16.14-33.07,26.18-54.47,30.61a96.56,96.56,0,0,1-16.85,2.1c-5,.14-10,.34-15,.39q-16.61.19-33.23.22c-5.67,0-11.34-.23-17.31-.36,2.33-6.88,4.62-13.62,7-20.55h37.78c4.51,0,9,.08,13.55-.07,22.62-.75,42.91-7.68,59.81-23.16a81.05,81.05,0,0,0,24.76-43.5,84.31,84.31,0,0,0,1.59-27.52,80.24,80.24,0,0,0-21.66-47.47c-13.33-14.16-29.84-22.53-48.84-26.18a87.25,87.25,0,0,0-14.85-1.67c-7-.13-13.94-.24-20.92-.22-8.13,0-16.27.21-24.4.33C330.51,150.72,329.77,150.8,328.81,150.85Z" style="fill:#fff"/></g></svg>